<svg><defs><linearGradient id="paint0_linear" x1="9" y1="-13" x2="9" y2="31" gradientUnits="userSpaceOnUse"><stop stop-color="#BC9CFF"/><stop offset="1" stop-color="#8BA4F9"/></linearGradient><linearGradient id="paint0_linear" x1="20" y1="-4" x2="20" y2="44" gradientUnits="userSpaceOnUse"><stop stop-color="#BC9CFF"/><stop offset="1" stop-color="#8BA4F9"/></linearGradient><linearGradient id="paint0_linear" x1="11" y1="-1" x2="11" y2="23" gradientUnits="userSpaceOnUse"><stop stop-color="#BC9CFF"/><stop offset="1" stop-color="#8BA4F9"/></linearGradient><linearGradient id="paint0_linear" x1="17" y1="-1" x2="17" y2="47" gradientUnits="userSpaceOnUse"><stop stop-color="#BC9CFF"/><stop offset="1" stop-color="#8BA4F9"/></linearGradient><linearGradient id="paint0_linear" x1="11" y1="-1" x2="11" y2="23" gradientUnits="userSpaceOnUse"><stop stop-color="#BC9CFF"/><stop offset="1" stop-color="#8BA4F9"/></linearGradient><linearGradient id="paint0_linear" x1="18" y1="-4" x2="18" y2="44" gradientUnits="userSpaceOnUse"><stop stop-color="#BC9CFF"/><stop offset="1" stop-color="#8BA4F9"/></linearGradient><linearGradient id="paint0_linear" x1="10.26" y1="-1.5" x2="10.26" y2="22.5" gradientUnits="userSpaceOnUse"><stop stop-color="#BC9CFF"/><stop offset="1" stop-color="#8BA4F9"/></linearGradient><linearGradient id="paint0_linear" x1="10.26" x2="10.26" y1="-1.5" y2="22.5" gradientUnits="userSpaceOnUse"><stop stop-color="#BC9CFF" offset="0"/><stop stop-color="#8BA4F9" offset="1"/></linearGradient><linearGradient id="paint0_linear" x1="10.26" y1="-1.5" x2="10.26" y2="22.5" gradientUnits="userSpaceOnUse"><stop stop-color="#BC9CFF"/><stop offset="1" stop-color="#8BA4F9"/></linearGradient><linearGradient id="paint0_linear" x1="12" y1="-2" x2="12" y2="22" gradientUnits="userSpaceOnUse"><stop stop-color="#BC9CFF"/><stop offset="1" stop-color="#8BA4F9"/></linearGradient></defs><symbol id="arrow-left" viewBox="0 0 17 18"><path d="M16.175 8.016v1.968H3.989l5.578 5.625-1.406 1.407L.144 9 8.16.984l1.406 1.407-5.578 5.625h12.188z"/></symbol><symbol id="arrow-right" viewBox="0 0 18 18"><path d="M9 .984L17.016 9 9 17.016l-1.406-1.407 5.578-5.625H.984V8.016h12.188L7.594 2.39 9 .984z"/></symbol><symbol id="emoticon-happy" viewBox="0 0 40 40"><path d="M26.188 29.094c-1.813 1.25-3.875 1.875-6.188 1.875-2.313 0-4.406-.625-6.281-1.875-1.813-1.313-3.125-3-3.938-5.063H30.22c-.813 2.063-2.157 3.75-4.032 5.063zM15.03 17.187c-.562.563-1.25.844-2.062.844-.813 0-1.531-.281-2.156-.843-.563-.625-.844-1.344-.844-2.157 0-.812.281-1.5.844-2.062.624-.625 1.343-.938 2.156-.938.812 0 1.5.313 2.062.938.625.562.938 1.25.938 2.062 0 .813-.313 1.531-.938 2.156zm14.063 0c-.563.563-1.25.844-2.063.844-.812 0-1.531-.281-2.156-.843-.563-.625-.844-1.344-.844-2.157 0-.812.282-1.5.844-2.062.625-.625 1.344-.938 2.156-.938.813 0 1.5.313 2.063.938.625.562.937 1.25.937 2.062 0 .813-.312 1.531-.937 2.156zM8.656 31.345C11.844 34.469 15.625 36.03 20 36.03c4.375 0 8.125-1.562 11.25-4.687 3.188-3.188 4.781-6.969 4.781-11.344 0-4.375-1.593-8.125-4.781-11.25-3.125-3.187-6.875-4.78-11.25-4.78S11.844 5.563 8.656 8.75C5.531 11.875 3.97 15.625 3.97 20s1.562 8.156 4.687 11.344zM5.844 5.937C9.78 2 14.5.032 20 .032S30.188 2 34.063 5.938C38 9.813 39.968 14.5 39.968 20S38 30.219 34.062 34.156C30.189 38.031 25.5 39.97 20 39.97S9.781 38.03 5.844 34.156C1.969 30.22.03 25.5.03 20S1.97 9.812 5.844 5.937z"/></symbol><symbol id="facebook" viewBox="0 0 22 22"><path d="M21.5 2.75v16.5a2.17 2.17 0 0 1-.656 1.594 2.17 2.17 0 0 1-1.594.656h-3.984v-8.297h2.812l.422-3.187h-3.234V8c0-.5.093-.875.28-1.125.25-.281.673-.422 1.267-.422H18.5V3.641c-.656-.094-1.469-.141-2.438-.141-1.25 0-2.25.375-3 1.125-.718.719-1.078 1.734-1.078 3.047v2.344H9.125v3.187h2.86V21.5H2.75a2.17 2.17 0 0 1-1.594-.656A2.17 2.17 0 0 1 .5 19.25V2.75c0-.625.219-1.156.656-1.594A2.17 2.17 0 0 1 2.75.5h16.5a2.17 2.17 0 0 1 1.594.656c.437.438.656.969.656 1.594z"/></symbol><symbol id="fire" viewBox="0 0 34 43"><path d="M16.438 36.969c2.687 0 4.937-.907 6.75-2.719C25.063 32.375 26 30.094 26 27.406c0-2.75-.375-5.437-1.125-8.062-1.938 2.562-5.031 4.281-9.281 5.156-3.75.813-5.625 2.875-5.625 6.188 0 1.75.625 3.25 1.875 4.5 1.25 1.187 2.781 1.78 4.594 1.78zM20 .312c4 3.25 7.156 7.22 9.469 11.907 2.375 4.625 3.562 9.562 3.562 14.812 0 4.375-1.562 8.125-4.687 11.25S21.437 42.97 17 42.97c-4.438 0-8.219-1.563-11.344-4.688S.97 31.406.97 27.031c0-6.75 2.156-12.687 6.468-17.812v.75c0 2.062.688 3.812 2.063 5.25 1.375 1.437 3.094 2.156 5.156 2.156 2 0 3.625-.688 4.875-2.063 1.313-1.437 1.969-3.218 1.969-5.343 0-1.25-.125-2.688-.375-4.313-.25-1.625-.5-2.906-.75-3.843L20 .313z"/></symbol><symbol id="hart-active" viewBox="0 0 10 8"><path d="M4.93 7.887l-.605-.547A80.924 80.924 0 0 1 2.82 5.953c-.313-.3-.664-.67-1.055-1.113-.377-.443-.638-.84-.781-1.192A3.021 3.021 0 0 1 .77 2.535c0-.638.215-1.178.645-1.62.442-.444.99-.665 1.64-.665.755 0 1.38.293 1.875.879C5.425.543 6.05.25 6.805.25c.651 0 1.192.221 1.621.664.443.443.664.983.664 1.621 0 .508-.169 1.035-.507 1.582a7.84 7.84 0 0 1-1.114 1.426c-.39.404-1.035 1.01-1.933 1.816l-.606.528z"/></symbol><symbol id="hart" viewBox="0 0 10 8"><path d="M5.04 6.734c.624-.56 1.086-.983 1.386-1.27.3-.286.625-.624.976-1.015.352-.39.593-.735.723-1.035.143-.3.215-.592.215-.879A1.37 1.37 0 0 0 7.91 1.5c-.273-.273-.618-.41-1.035-.41a1.68 1.68 0 0 0-.918.273 1.415 1.415 0 0 0-.566.703h-.782c-.104-.286-.3-.52-.586-.703a1.586 1.586 0 0 0-.898-.273 1.47 1.47 0 0 0-1.055.41c-.273.273-.41.618-.41 1.035 0 .287.065.58.195.88.144.299.391.644.743 1.034.351.39.677.73.976 1.016.3.286.762.71 1.387 1.27L5 6.772l.04-.039zM6.874.25c.651 0 1.191.221 1.621.664.443.443.664.983.664 1.621a3 3 0 0 1-.215 1.113c-.143.352-.41.75-.8 1.192-.378.443-.723.814-1.036 1.113-.312.3-.813.762-1.504 1.387L5 7.887l-.605-.528A55.478 55.478 0 0 1 2.44 5.543a8.39 8.39 0 0 1-1.093-1.426C1.009 3.57.84 3.043.84 2.535c0-.638.215-1.178.644-1.62C1.927.47 2.474.25 3.125.25c.755 0 1.38.293 1.875.879C5.495.543 6.12.25 6.875.25z"/></symbol><symbol id="info" viewBox="0 0 20 20"><circle class="icon-info__circle" cx="10" cy="10" r="9.5"/><path class="icon-info__sign" d="M9.255 7.544h1.872V14H9.255V7.544zm.936-.9c-.344 0-.624-.1-.84-.3a.973.973 0 0 1-.324-.744c0-.296.108-.544.324-.744.216-.2.496-.3.84-.3s.624.096.84.288a.923.923 0 0 1 .324.72c0 .312-.108.572-.324.78-.216.2-.496.3-.84.3z"/></symbol><symbol id="instagram" viewBox="0 0 22 22"><path d="M11 5.61c-.969 0-1.875.25-2.719.75a5.406 5.406 0 0 0-1.969 1.968A5.252 5.252 0 0 0 5.61 11c0 .969.235 1.875.704 2.719a5.93 5.93 0 0 0 1.968 1.969A5.51 5.51 0 0 0 11 16.39c.969 0 1.86-.235 2.672-.703.844-.5 1.5-1.157 1.969-1.97.5-.843.75-1.75.75-2.718a5 5 0 0 0-.75-2.672 4.972 4.972 0 0 0-1.97-1.969A5 5 0 0 0 11 5.61zm0 8.906a3.386 3.386 0 0 1-2.484-1.032A3.386 3.386 0 0 1 7.484 11c0-.969.344-1.797 1.032-2.484A3.386 3.386 0 0 1 11 7.484c.969 0 1.797.344 2.484 1.032A3.386 3.386 0 0 1 14.516 11c0 .969-.344 1.797-1.032 2.484A3.386 3.386 0 0 1 11 14.516zm6.89-9.141c-.03.344-.171.64-.421.89-.219.25-.5.376-.844.376s-.64-.125-.89-.375a1.217 1.217 0 0 1-.376-.891c0-.344.125-.64.375-.89s.547-.376.891-.376.64.125.89.375.376.547.376.891zm3.563 1.266c-.062-.907-.203-1.688-.422-2.344A5.13 5.13 0 0 0 19.72 2.28 5.13 5.13 0 0 0 17.703.97C17.047.75 16.266.625 15.36.594 14.484.53 13.031.5 11 .5S7.5.531 6.594.594c-.875.031-1.64.156-2.297.375A5.537 5.537 0 0 0 2.234 2.28 5.392 5.392 0 0 0 .97 4.297C.75 4.953.609 5.734.547 6.64.516 7.516.5 8.969.5 11s.016 3.5.047 4.406c.062.875.203 1.64.422 2.297a5.841 5.841 0 0 0 1.265 2.063 5.318 5.318 0 0 0 2.063 1.218c.656.25 1.422.391 2.297.422.906.063 2.375.094 4.406.094 2.031 0 3.484-.031 4.36-.094.906-.031 1.687-.156 2.343-.375a5.392 5.392 0 0 0 2.016-1.265 5.536 5.536 0 0 0 1.312-2.063c.219-.656.344-1.422.375-2.297.063-.906.094-2.375.094-4.406 0-2.031-.016-3.484-.047-4.36zm-2.25 10.546c-.375.938-1.047 1.61-2.015 2.016-.5.188-1.344.313-2.532.375-.656.031-1.625.047-2.906.047h-1.5c-1.25 0-2.219-.016-2.906-.047-1.157-.062-2-.187-2.532-.375-.937-.375-1.609-1.047-2.015-2.015-.188-.532-.313-1.375-.375-2.532a68.365 68.365 0 0 1-.047-2.906v-1.5c0-1.25.016-2.219.047-2.906.062-1.188.187-2.032.375-2.532.375-.968 1.047-1.64 2.015-2.015.532-.188 1.375-.313 2.532-.375a68.37 68.37 0 0 1 2.906-.047h1.5c1.25 0 2.219.016 2.906.047 1.188.062 2.031.187 2.531.375.97.375 1.641 1.047 2.016 2.015.188.5.313 1.344.375 2.532.031.656.047 1.625.047 2.906v1.5c0 1.25-.016 2.219-.047 2.906-.062 1.156-.187 2-.375 2.531z"/></symbol><symbol id="location-city" viewBox="0 0 36 38"><path d="M31.969 26v-4.031H28.03V26h3.938zm0 7.969V30.03H28.03v3.938h3.938zm-12-24V6.03H16.03v3.94h3.938zm0 8.062V14H16.03v4.031h3.938zm0 7.969v-4.031H16.03V26h3.938zm0 7.969V30.03H16.03v3.938h3.938zm-12-15.938V14H4.03v4.031h3.94zm0 7.969v-4.031H4.03V26h3.94zm0 7.969V30.03H4.03v3.938h3.94zM24 18.03h12V38H0V9.969h12V6.03l6-6 6 6v12z"/></symbol><symbol id="semi-arrow-down" viewBox="0 0 12 8"><path d="M10.594.578L12 1.984l-6 6-6-6L1.406.578 6 5.172 10.594.578z"/></symbol><symbol id="semi-arrow-up" viewBox="0 0 12 8"><path d="M1.406 7.422L0 6.016l6-6 6 6-1.406 1.406L6 2.828 1.406 7.422z"/></symbol><symbol id="star-active" viewBox="0 0 21 20"><path d="M10.264 15.749l-6.188 3.75 1.64-7.031L.28 7.733l7.172-.609 2.813-6.61 2.812 6.61 7.172.61-5.438 4.734 1.641 7.031-6.187-3.75z"/></symbol><symbol id="star-half-active" viewBox="0 0 21 20"><path d="M10.264 13.921l3.75 2.25-.984-4.266L16.358 9l-4.407-.375-1.687-4.031zm9.984-6.188l-5.437 4.735 1.64 7.031-6.187-3.75-6.188 3.75 1.641-7.031L.28 7.733l7.171-.609 2.813-6.61 2.813 6.61z"/></symbol><symbol id="star" viewBox="0 0 21 20"><path d="M10.264 13.92l3.75 2.25-.985-4.265L16.357 9l-4.406-.375-1.687-4.031-1.688 4.031L4.17 9l3.328 2.906-.984 4.266 3.75-2.25zm9.984-6.187l-5.438 4.735 1.641 7.031-6.187-3.75-6.188 3.75 1.64-7.031L.28 7.733l7.172-.609 2.813-6.61 2.812 6.61 7.172.61z"/></symbol><symbol id="twitter" viewBox="0 0 24 20"><path d="M21.516 5.125c.03.125.047.328.047.61 0 2.25-.547 4.421-1.641 6.515-1.125 2.219-2.703 3.984-4.735 5.297-2.218 1.469-4.765 2.203-7.64 2.203-2.75 0-5.266-.734-7.547-2.203.344.031.734.047 1.172.047 2.281 0 4.328-.703 6.14-2.11-1.093 0-2.062-.312-2.906-.937a5.085 5.085 0 0 1-1.687-2.438c.312.032.61.047.89.047.438 0 .875-.047 1.313-.14-1.125-.25-2.063-.829-2.813-1.735C1.36 9.375.984 8.344.984 7.187v-.093a4.634 4.634 0 0 0 2.204.656 5.46 5.46 0 0 1-1.594-1.781 4.683 4.683 0 0 1-.61-2.344c0-.875.235-1.703.704-2.484A13.646 13.646 0 0 0 6.14 4.797a13.794 13.794 0 0 0 5.671 1.5 6.832 6.832 0 0 1-.093-1.125c0-.875.219-1.688.656-2.438A4.77 4.77 0 0 1 14.156.906 4.754 4.754 0 0 1 16.594.25c.718 0 1.375.14 1.968.422a5.473 5.473 0 0 1 1.641 1.125 10.015 10.015 0 0 0 3.14-1.172c-.374 1.156-1.093 2.063-2.155 2.719.937-.125 1.875-.39 2.812-.797-.688 1-1.516 1.86-2.484 2.578z"/></symbol></svg>